<?xml version="1.0" encoding="UTF-8"?>
<svg version="1.1" xmlns="http://www.w3.org/2000/svg" width="96" height="96">
<path d="M0 0 C5.8815862 5.01664705 5.8815862 5.01664705 6.4765625 9.40625 C6.66855968 15.89924547 5.88268366 19.59520239 1.625 24.5625 C-1.50719255 27.17266046 -4.74978443 26.93430217 -8.6315918 26.92602539 C-10.40308846 26.92591209 -10.40308846 26.92591209 -12.21037292 26.92579651 C-13.48544205 26.92063522 -14.76051117 26.91547394 -16.07421875 26.91015625 C-17.37954056 26.9087413 -18.68486237 26.90732635 -20.02973938 26.90586853 C-23.49689656 26.9020538 -26.96401174 26.89223244 -30.43115234 26.88116455 C-33.97037182 26.87092798 -37.5095981 26.8663661 -41.04882812 26.86132812 C-47.99090265 26.85060923 -54.93294931 26.83354534 -61.875 26.8125 C-61.875 24.1725 -61.875 21.5325 -61.875 18.8125 C-61.20736633 18.80441315 -60.53973267 18.79632629 -59.85186768 18.78799438 C-52.90886241 18.7019985 -45.96614429 18.60249678 -39.0234375 18.49511719 C-36.43168964 18.4568123 -33.83988834 18.42196213 -31.24804688 18.390625 C-27.52454517 18.34500783 -23.80141185 18.2870069 -20.078125 18.2265625 C-18.91758606 18.21501129 -17.75704712 18.20346008 -16.56134033 18.19155884 C-15.48052185 18.17168915 -14.39970337 18.15181946 -13.28613281 18.13134766 C-11.86050018 18.11136215 -11.86050018 18.11136215 -10.40606689 18.0909729 C-7.78974024 17.80311956 -6.12641613 17.14030382 -3.875 15.8125 C-3.83245644 13.81295254 -3.83419217 11.81208364 -3.875 9.8125 C-5.00034105 8.45631501 -5.00034105 8.45631501 -7.9375 8.75 C-9.3915625 8.7809375 -9.3915625 8.7809375 -10.875 8.8125 C-11.535 10.1325 -12.195 11.4525 -12.875 12.8125 C-15.845 12.8125 -18.815 12.8125 -21.875 12.8125 C-22.3302667 9.70151085 -22.36960395 7.58502426 -20.64453125 4.890625 C-15.21553551 -1.59736004 -8.0469012 -3.32372006 0 0 Z " fill="#FFFFFF" transform="translate(69.875,13.1875)"/>
<path d="M0 0 C9.1708584 -0.06955307 18.3416258 -0.12283813 27.51269054 -0.15543652 C31.77133192 -0.17108322 36.02979266 -0.19230318 40.28833008 -0.22631836 C44.39913518 -0.25894752 48.50976668 -0.27686051 52.6206913 -0.28463173 C54.18796839 -0.29016887 55.75523613 -0.30098165 57.32243919 -0.31719017 C59.52009893 -0.33901228 61.71704403 -0.34196501 63.91479492 -0.34057617 C65.16499924 -0.34723801 66.41520355 -0.35389984 67.70329285 -0.36076355 C72.33694142 0.14630348 74.85583571 2.01045251 78.3125 5 C80.88630119 9.57564656 80.74564414 13.87087211 80 19 C77.85253538 23.45400068 75.5441738 26.00499687 71 28 C68.1875 28.1875 68.1875 28.1875 66 28 C66 25.03 66 22.06 66 19 C67.32 18.34 68.64 17.68 70 17 C70 15.02 70 13.04 70 11 C66.4730758 8.83004769 63.58582613 8.72808198 59.48730469 8.68115234 C58.52082504 8.66608391 58.52082504 8.66608391 57.53482056 8.65071106 C55.41384744 8.61992177 53.2930003 8.60285622 51.171875 8.5859375 C49.69784464 8.56722238 48.22382495 8.5476487 46.74981689 8.5272522 C42.87669166 8.47596115 39.00353171 8.43631938 35.13024902 8.39910889 C31.17528719 8.35905017 27.22046942 8.30796637 23.265625 8.2578125 C15.51051556 8.1610891 7.75533633 8.07667301 0 8 C0 5.36 0 2.72 0 0 Z " fill="#FFFFFF" transform="translate(8,44)"/>
<path d="M0 0 C6.01392146 -0.12387657 12.02709548 -0.21447072 18.04199219 -0.2746582 C20.08672019 -0.29975583 22.13135889 -0.33384164 24.17578125 -0.37719727 C27.12001611 -0.43805815 30.06306196 -0.4662573 33.0078125 -0.48828125 C33.9174173 -0.51408768 34.82702209 -0.5398941 35.76419067 -0.56648254 C40.14734524 -0.56840635 43.07774283 -0.41189352 46.56201172 2.40551758 C50.32252252 6.40741506 50.39029416 9.10793395 50.359375 14.44921875 C49.78039966 18.55868504 48.00085071 20.21349577 45 23 C41.26299831 24.86850084 37.06934775 24.54216425 33 24 C30.06164888 22.69211118 29.14988819 21.5908909 27 19 C26.125 15.1875 26.125 15.1875 26 12 C28.97 12 31.94 12 35 12 C35.495 12.99 35.495 12.99 36 14 C37.32 14 38.64 14 40 14 C40 12.68 40 11.36 40 10 C36.72684491 8.36342246 33.09377769 8.7569193 29.4921875 8.68359375 C28.23125778 8.6524221 28.23125778 8.6524221 26.94485474 8.62062073 C24.25498765 8.55514561 21.56502157 8.4962498 18.875 8.4375 C17.05337511 8.39431284 15.23176029 8.35069848 13.41015625 8.30664062 C8.94020606 8.19946632 4.47015614 8.09819315 0 8 C0 5.36 0 2.72 0 0 Z " fill="#FFFFFF" transform="translate(8,56)"/>
</svg>
