<?xml version="1.0" encoding="UTF-8"?>
<svg version="1.1" xmlns="http://www.w3.org/2000/svg" width="512" height="512">
<path d="M0 0 C1.01790619 0.00215515 2.03581238 0.0043103 3.08456421 0.00653076 C17.69363523 0.05620146 32.02575853 0.30709809 46.375 3.3125 C47.34985352 3.51117676 48.32470703 3.70985352 49.32910156 3.91455078 C97.7109774 14.03517194 141.69928269 35.9516877 177.375 70.3125 C178.3640332 71.26068604 178.3640332 71.26068604 179.37304688 72.22802734 C188.86130305 81.37247479 197.6012044 90.66984009 205.375 101.3125 C206.23306152 102.46355017 207.09113451 103.61459177 207.94921875 104.765625 C213.98736829 112.95680614 219.34595521 121.47054105 224.375 130.3125 C224.73948242 130.94430176 225.10396484 131.57610352 225.47949219 132.22705078 C247.08534998 169.97532572 256.85198095 212.74189997 256.6875 255.9375 C256.68534485 256.95540619 256.6831897 257.97331238 256.68096924 259.02206421 C256.63129854 273.63113523 256.38040191 287.96325853 253.375 302.3125 C253.07698486 303.77478027 253.07698486 303.77478027 252.77294922 305.26660156 C242.65232806 353.6484774 220.7358123 397.63678269 186.375 433.3125 C185.74287598 433.97185547 185.11075195 434.63121094 184.45947266 435.31054688 C175.31502521 444.79880305 166.01765991 453.5387044 155.375 461.3125 C154.22394983 462.17056152 153.07290823 463.02863451 151.921875 463.88671875 C143.73224019 469.92427396 135.22961724 475.30707302 126.375 480.3125 C125.66778809 480.7146875 124.96057617 481.116875 124.23193359 481.53125 C101.09654164 494.5566741 75.92537591 503.30551461 49.9375 508.625 C49.21860596 508.77235596 48.49971191 508.91971191 47.7590332 509.0715332 C33.08339502 511.86090125 18.55831162 512.66142619 3.64770508 512.62817383 C0.70811513 512.6250221 -2.2304558 512.64854926 -5.16992188 512.67382812 C-18.54306192 512.71848737 -31.43916711 511.51301542 -44.625 509.3125 C-46.33055054 509.03031616 -46.33055054 509.03031616 -48.07055664 508.74243164 C-91.33802759 500.97044532 -132.38793216 480.98345309 -165.625 452.3125 C-166.37007813 451.67828125 -167.11515625 451.0440625 -167.8828125 450.390625 C-181.38779833 438.57948485 -194.05918743 425.82889772 -204.625 411.3125 C-205.48149066 410.16255169 -206.33826433 409.01281411 -207.1953125 407.86328125 C-213.23534209 399.67315742 -218.61867614 391.16870382 -223.625 382.3125 C-224.0271875 381.60528809 -224.429375 380.89807617 -224.84375 380.16943359 C-237.8691741 357.03404164 -246.61801461 331.86287591 -251.9375 305.875 C-252.08485596 305.15610596 -252.23221191 304.43721191 -252.3840332 303.6965332 C-255.35789088 288.05024391 -255.99800362 272.57681954 -255.9375 256.6875 C-255.93534485 255.66959381 -255.9331897 254.65168762 -255.93096924 253.60293579 C-255.88129854 238.99386477 -255.63040191 224.66174147 -252.625 210.3125 C-252.42632324 209.33764648 -252.22764648 208.36279297 -252.02294922 207.35839844 C-241.90232806 158.9765226 -219.9858123 114.98821731 -185.625 79.3125 C-184.99287598 78.65314453 -184.36075195 77.99378906 -183.70947266 77.31445312 C-174.56502521 67.82619695 -165.26765991 59.0862956 -154.625 51.3125 C-153.47394983 50.45443848 -152.32290823 49.59636549 -151.171875 48.73828125 C-142.98224019 42.70072604 -134.47961724 37.31792698 -125.625 32.3125 C-124.91778809 31.9103125 -124.21057617 31.508125 -123.48193359 31.09375 C-100.34654164 18.0683259 -75.17537591 9.31948539 -49.1875 4 C-48.46860596 3.85264404 -47.74971191 3.70528809 -47.0090332 3.5534668 C-31.36274391 0.57960912 -15.88931954 -0.06050362 0 0 Z " fill="#5BC2F9" transform="translate(255.625,-0.3125)"/>
<path d="M0 0 C9.30805856 6.63681099 15.25424918 15.74917822 20 26 C23.60513403 23.93992341 26.80331012 21.6486859 30 19 C29.030625 18.38125 28.06125 17.7625 27.0625 17.125 C24 15 24 15 23 13 C22.41787646 6.71306576 22.41787646 6.71306576 24.59765625 4.04296875 C27.47464893 1.59635546 30.50656637 -0.4006916 33.75 -2.3125 C34.33265625 -2.68439453 34.9153125 -3.05628906 35.515625 -3.43945312 C40.52714905 -6.39031762 43.53962972 -6.24310558 49 -5 C51.66753429 -2.74926794 51.94305692 -1.45554461 52.375 2 C51.95987047 5.32103625 51.06528541 6.46483484 49 9 C49.65484375 8.73445313 50.3096875 8.46890625 50.984375 8.1953125 C71.53667871 0.24145485 95.412158 0.92647387 115.73193359 9.53686523 C133.34289373 17.42120045 148.32934083 29.79017738 157.125 47.1875 C157.55022949 48.0117749 157.97545898 48.8360498 158.41357422 49.68530273 C167 66.60309565 167 66.60309565 167 72 C167.59425781 72.14695312 168.18851562 72.29390625 168.80078125 72.4453125 C186.53310826 77.24379601 201.94331835 89.48785294 211.40234375 105.15234375 C221.41275791 122.99486679 224.33165053 143.58453263 219.4375 163.625 C213.78480292 182.90367214 200.80926063 198.60137401 183.31616211 208.31713867 C167.00925581 216.95929156 150.14037071 216.14918457 132.19702148 216.12939453 C130.11920644 216.13075193 128.04139163 216.13253376 125.96357727 216.13470459 C120.3516069 216.13924061 114.73965503 216.13750465 109.12768435 216.1343255 C103.22738012 216.13177967 97.32707738 216.13414583 91.42677307 216.13571167 C81.5135978 216.13752789 71.60042999 216.13514245 61.68725586 216.13037109 C50.27266827 216.12494006 38.85809858 216.12668491 27.44351143 216.1321975 C17.60437539 216.13675683 7.7652447 216.13736513 -2.07389206 216.13475883 C-7.93287094 216.13321015 -13.79184145 216.13296303 -19.65081978 216.13629532 C-25.1691387 216.13921482 -30.68743491 216.13712455 -36.20575142 216.13140106 C-38.21467044 216.13009465 -40.22359141 216.13043082 -42.23250961 216.13266373 C-52.13118589 216.14263922 -62.01668723 216.0465184 -71.90757751 215.62863159 C-72.71784033 215.59984582 -73.52810315 215.57106005 -74.36291939 215.54140198 C-85.27900971 215.00776978 -94.37788995 210.6023638 -103 204 C-103.61359375 203.55011719 -104.2271875 203.10023438 -104.859375 202.63671875 C-116.14274518 193.77477978 -122.96746186 178.97760841 -125 165 C-126.4790523 147.69743582 -123.52956153 132.26954772 -112.84765625 118.15625 C-102.88934909 106.40641595 -89.00047069 98.67308284 -73.8125 96 C-71.9253125 95.505 -71.9253125 95.505 -70 95 C-68.71801395 92.50701676 -68.71801395 92.50701676 -68 90 C-68.4846875 89.57332031 -68.969375 89.14664063 -69.46875 88.70703125 C-81.41076275 77.56880782 -87.82562054 63.87516852 -88.51928711 47.59960938 C-88.78796466 31.43645382 -83.39321126 17.86846431 -72.4375 5.8125 C-51.78363037 -13.71625611 -23.60462324 -14.06112724 0 0 Z " fill="#E8E8E8" transform="translate(210,173)"/>
<path d="M0 0 C9.08327131 6.47653369 15.7515958 15.73302319 20 26 C19.63989717 29.51100259 18.0852009 31.37385554 15.75 33.9375 C15.16734375 34.58589844 14.5846875 35.23429687 13.984375 35.90234375 C13.32953125 36.59457031 12.6746875 37.28679687 12 38 C11.24976563 38.8971875 10.49953125 39.794375 9.7265625 40.71875 C6.19032307 43.67743743 4.18760489 43.5670535 -0.375 43.5625 C-20.77013418 44.1407367 -38.03078925 52.43682281 -52 67 C-52.60199219 67.60585937 -53.20398438 68.21171875 -53.82421875 68.8359375 C-59.46163208 74.90244529 -63.39586784 82.59739523 -67 90 C-78.10957913 81.32269559 -85.86436749 69.06909049 -88 55 C-89.65975164 36.68619539 -85.89256966 22.4102732 -74.265625 7.82421875 C-54.49867267 -13.92787623 -23.98055044 -14.28506474 0 0 Z " fill="#FEE133" transform="translate(210,173)"/>
<path d="M0 0 C0.495 0.639375 0.99 1.27875 1.5 1.9375 C2.325 2.948125 3.15 3.95875 4 5 C4.54785156 5.68964844 5.09570312 6.37929687 5.66015625 7.08984375 C12.63085512 15.46327052 21.40388393 22.18371829 32.51464844 23.37768555 C42.24079595 23.55864575 50.07867344 21.95649586 59.17153931 18.5826416 C62.72989808 17.26414656 66.31793973 16.03068321 69.90234375 14.78515625 C70.60167526 14.53978119 71.30100677 14.29440613 72.02153015 14.04159546 C77.88271699 11.99852526 83.78762873 10.24934795 89.8125 8.75 C90.60495117 8.54608643 91.39740234 8.34217285 92.21386719 8.13208008 C95.86748139 7.25630892 98.41441189 6.91283035 102 8 C100.54601271 9.81598825 99.08667675 11.62769519 97.625 13.4375 C96.81289062 14.44683594 96.00078125 15.45617187 95.1640625 16.49609375 C93 19 93 19 91 20 C89.30023607 20.09431489 87.59992047 20.18331313 85.8984375 20.23852539 C64.60783922 20.99356416 46.68203517 28.69368932 32 44 C31.39800781 44.60585937 30.79601562 45.21171875 30.17578125 45.8359375 C24.53836792 51.90244529 20.60413216 59.59739523 17 67 C5.90187009 58.33163817 -1.88638495 46.06366935 -4 32 C-4.9247302 20.7442231 -4.74177689 10.41497423 0 0 Z " fill="#FDBE2D" transform="translate(126,196)"/>
<path d="M0 0 C0.66 0 1.32 0 2 0 C3.26953125 1.29296875 3.26953125 1.29296875 4.8125 3.1875 C7.17853604 6.02674325 9.62540144 8.62165811 12.3515625 11.109375 C13.23557739 11.93272339 13.23557739 11.93272339 14.13745117 12.77270508 C15.31808615 13.8646283 16.51591454 14.93830987 17.73168945 15.9909668 C21.84585219 19.85141381 21.84585219 19.85141381 22.30517578 23.27392578 C22.25390625 25.66015625 22.25390625 25.66015625 22.01782227 27.87133789 C21.99589945 30.48976284 22.51813304 31.85048193 24 34 C29.59856269 35.34996752 29.59856269 35.34996752 35 34 C35.6791041 32.3383623 36.34356058 30.67072126 37 29 C37.97019897 27.33642514 38.97124071 25.69051157 40 24.0625 C42.21109083 20.45464691 43.91464157 17.12436204 45 13 C50.97734909 17.95544138 56.46187935 23.31189552 61.9375 28.8125 C62.81212891 29.68326172 63.68675781 30.55402344 64.58789062 31.45117188 C65.41353516 32.27810547 66.23917969 33.10503906 67.08984375 33.95703125 C67.84128662 34.70960205 68.59272949 35.46217285 69.36694336 36.23754883 C71 38 71 38 71 39 C69.7625 39.350625 68.525 39.70125 67.25 40.0625 C61.0412539 42.11889998 55.41248278 45.35360332 50 49 C48.47508002 52.04983996 48.76437452 54.6423369 49 58 C50.16666667 59.83333333 50.16666667 59.83333333 52 61 C53.32 61.99 54.64 62.98 56 64 C52.7 66.64 49.4 69.28 46 72 C43.20398361 69.20398361 41.98744449 67.2727476 40.25 63.8125 C33.10586402 50.52230586 22.23106188 42.76297057 8 38 C6.44193051 37.72372889 4.87934983 37.47110599 3.3125 37.25 C-2.61542974 36.1751556 -6.3047996 31.46394185 -10 27 C-10 26.67 -10 26.34 -10 26 C-8.88625 25.71125 -7.7725 25.4225 -6.625 25.125 C-2.99708908 24.30758671 -2.99708908 24.30758671 -1 22 C-0.62948007 19.6754661 -0.62948007 19.6754661 -0.5859375 16.9921875 C-0.52792969 15.51298828 -0.52792969 15.51298828 -0.46875 14.00390625 C-0.4378125 12.97136719 -0.406875 11.93882812 -0.375 10.875 C-0.33632812 9.83472656 -0.29765625 8.79445312 -0.2578125 7.72265625 C-0.16335234 5.14861689 -0.07778786 2.57458845 0 0 Z " fill="#2D85ED" transform="translate(185,128)"/>
<path d="M0 0 C1.1055189 0.93590504 2.20935453 1.87379858 3.3125 2.8125 C4.23482422 3.59560547 4.23482422 3.59560547 5.17578125 4.39453125 C5.77777344 4.92433594 6.37976563 5.45414063 7 6 C7.78503906 6.59167969 7.78503906 6.59167969 8.5859375 7.1953125 C10.8525687 10.08808492 11.41930069 13.56186903 12.3125 17.0625 C15.37548224 28.11642644 20.24969688 35.6110694 28.14453125 43.96875 C30 46 30 46 31 48 C29.98828125 50.5078125 29.98828125 50.5078125 28 53 C24.91796875 54.1171875 24.91796875 54.1171875 21.1875 54.875 C14.13149157 56.46249387 8.27653671 59.09095428 1.92578125 62.51171875 C-2.92397773 64.9786856 -2.92397773 64.9786856 -5 65 C-7.359375 63.1640625 -7.359375 63.1640625 -9.75 60.625 C-10.94882813 59.37589844 -10.94882813 59.37589844 -12.171875 58.1015625 C-14 56 -14 56 -14 55 C-12.4221875 54.7525 -12.4221875 54.7525 -10.8125 54.5 C-3.77837647 52.76988344 4.97634615 48.03548078 9 42 C9.48439116 37.87167956 9.48439116 37.87167956 7.73022461 34.28344727 C6.1078785 32.79972499 6.1078785 32.79972499 4.12719727 33.07397461 C3.42651123 33.20296143 2.7258252 33.33194824 2.00390625 33.46484375 C-1.50181961 33.58347723 -2.80433991 33.14066718 -5.69970703 31.05908203 C-8.59878681 28.32233846 -11.35166289 25.48247624 -14.0625 22.5625 C-15.03113685 21.55724968 -16.00182483 20.55397151 -16.97460938 19.55273438 C-24 12.23773987 -24 12.23773987 -24 11 C-22.74703125 10.95101562 -21.4940625 10.90203125 -20.203125 10.8515625 C-18.55206179 10.77651417 -16.90102119 10.70096723 -15.25 10.625 C-14.425 10.5940625 -13.6 10.563125 -12.75 10.53125 C-11.95078125 10.49257812 -11.1515625 10.45390625 -10.328125 10.4140625 C-9.22839355 10.36693115 -9.22839355 10.36693115 -8.10644531 10.31884766 C-5.7135049 9.95663391 -4.05727292 9.26549354 -2 8 C-1.09390008 6.06018382 -1.09390008 6.06018382 -0.75 3.875 C-0.5025 2.59625 -0.255 1.3175 0 0 Z " fill="#2B84ED" transform="translate(112,216)"/>
<path d="M0 0 C2.5625 2.0625 2.5625 2.0625 4 5 C3.73863088 10.93888715 1.74210994 14.90068722 -1.3125 19.8125 C-1.70373047 20.47958984 -2.09496094 21.14667969 -2.49804688 21.83398438 C-6.20376445 27.92414377 -6.20376445 27.92414377 -10 29 C-13.5625 28.9375 -13.5625 28.9375 -17 28 C-19 25.875 -19 25.875 -20 23 C-19.65547455 17.31533005 -17.98196953 13.4542359 -15.125 8.6875 C-14.77308594 8.06810547 -14.42117187 7.44871094 -14.05859375 6.81054688 C-10.56490446 0.82971447 -6.97163605 -1.34392984 0 0 Z " fill="#FCBC2D" transform="translate(226,135)"/>
<path d="M0 0 C1.40572266 -0.01643555 1.40572266 -0.01643555 2.83984375 -0.03320312 C7.16802714 0.01284138 9.82981679 0.17295601 13.625 2.37890625 C15.5 4.5625 15.5 4.5625 16 8.0625 C15.49018374 11.63121381 15.06333571 13.09410265 12.5 15.5625 C8.22108211 16.98880596 4.10862537 16.8673437 -0.375 16.9375 C-1.27347656 16.97488281 -2.17195313 17.01226562 -3.09765625 17.05078125 C-7.71135561 17.11211551 -9.81077453 17.08290004 -13.59375 14.2265625 C-15.5 11.5625 -15.5 11.5625 -16.125 8.5625 C-14.29406898 -0.22596891 -7.47294038 -0.19016423 0 0 Z " fill="#FCBC2C" transform="translate(96.5,210.4375)"/>
<path d="M0 0 C5.71669915 1.94611035 8.31761805 6.80011038 11.25 11.8125 C11.62189453 12.40353516 11.99378906 12.99457031 12.37695312 13.60351562 C15.01699496 18.11174349 15.19844964 20.98092594 13.9375 26 C12.875 27.9375 12.875 27.9375 10.9375 29 C5.44230769 29.61057692 5.44230769 29.61057692 2.9375 29 C-0.72600435 26.04323468 -3.0239997 22.20612026 -5.375 18.1875 C-5.74689453 17.59646484 -6.11878906 17.00542969 -6.50195312 16.39648438 C-8.44354922 13.08094691 -9.06514905 11.07565372 -8.9296875 7.20703125 C-8.0625 4 -8.0625 4 -5.875 1.5 C-3.0625 0 -3.0625 0 0 0 Z " fill="#FCBC2E" transform="translate(134.0625,134)"/>
<path d="M0 0 C2.6192182 2.20996536 2.92701746 3.57122759 3.5 6.9375 C2.82212929 11.08945809 1.12256805 12.22204915 -2 15 C-4.23638017 16.60427212 -6.55249355 18.00407057 -8.9375 19.375 C-9.53240234 19.74238281 -10.12730469 20.10976562 -10.74023438 20.48828125 C-13.80727557 22.26481877 -15.72387347 23.0144123 -19.29296875 22.828125 C-22.64806381 21.80174671 -24.01323888 20.90372779 -26 18 C-26.5 14.5 -26.5 14.5 -26 11 C-23.01311172 7.38238531 -19.25046224 5.04553108 -15.25 2.6875 C-14.66734375 2.31560547 -14.0846875 1.94371094 -13.484375 1.56054688 C-8.47285095 -1.39031762 -5.46037028 -1.24310558 0 0 Z " fill="#FBBB2D" transform="translate(259,168)"/>
<path d="M0 0 C2.59983374 2.03396873 3.83799932 3.24019086 4.53344727 6.50195312 C4.56903445 9.50287549 4.5939542 12.49889925 4.5625 15.5 C4.58634766 16.54542969 4.61019531 17.59085938 4.63476562 18.66796875 C4.62016133 26.27193898 4.62016133 26.27193898 1.6875 29.71484375 C-2.04670435 31.50053159 -4.07412795 31.21345136 -8 30 C-11.33350559 27.0309099 -12.27172458 24.64002582 -12.56640625 20.3125 C-12.58622777 18.54177713 -12.58431296 16.77069946 -12.5625 15 C-12.58634766 14.11054688 -12.61019531 13.22109375 -12.63476562 12.3046875 C-12.62459169 7.76033039 -12.47816031 5.63889325 -9.6875 1.91015625 C-6.16762007 -0.59161888 -4.23064252 -0.69228696 0 0 Z " fill="#F9BD31" transform="translate(181,123)"/>
<path d="M0 0 C2.5 1.625 2.5 1.625 4 4 C4.62153202 7.65150063 4.45013229 9.32096832 2.39453125 12.421875 C-0.36015472 15.38776854 -3.3222373 17.34526102 -6.8125 19.3125 C-7.40353516 19.67150391 -7.99457031 20.03050781 -8.60351562 20.40039062 C-12.88455616 22.85136803 -16.10894939 23.50103445 -21 23 C-23.4375 21.4375 -23.4375 21.4375 -25 19 C-25.66574938 14.93153158 -25.63512137 12.90731624 -23.25 9.5 C-16.70201534 3.92208714 -8.83794223 -1.73602437 0 0 Z " fill="#FCBC2D" transform="translate(118,248)"/>
<path d="M0 0 C2.59095721 1.15652695 4.79936593 2.28118035 7.1875 3.75 C7.79013672 4.09804687 8.39277344 4.44609375 9.01367188 4.8046875 C12.45249569 6.84306825 15.45324593 8.90175904 18 12 C18.55802097 15.90614682 18.58392818 18.05111671 16.5 21.4375 C13.04439565 23.59725272 9.92829247 23.57977811 6 23 C3.15723369 21.87448121 0.68291103 20.35065788 -1.875 18.6875 C-2.53757812 18.28337891 -3.20015625 17.87925781 -3.8828125 17.46289062 C-6.98161645 15.52613816 -8.95038385 14.07442423 -11 11 C-11.42255137 7.12661246 -11.56667558 4.88401391 -9.4375 1.5625 C-6.05922553 -0.60306056 -3.97913649 -0.34796975 0 0 Z " fill="#FCBC2D" transform="translate(104,167)"/>
<path d="M0 0 C4.28689198 1.99091613 7.47717049 4.05512578 9.8359375 8.28125 C10.3359375 11.84375 10.3359375 11.84375 9.8359375 15.28125 C7.96885245 17.64622439 6.51532319 18.94155715 3.8359375 20.28125 C-2.5383728 20.83075951 -6.83669771 19.88782882 -12.1640625 16.28125 C-15.30582585 13.3751189 -16.06691613 11.97341786 -16.6640625 7.71875 C-16.0898583 3.77109615 -15.28106526 2.66484035 -12.1640625 0.28125 C-8.31586373 -1.64284938 -3.99688777 -1.32748619 0 0 Z " fill="#FDEB71" transform="translate(195.1640625,175.71875)"/>
<path d="M0 0 C1.15518918 0.90484792 2.29885406 1.8244206 3.4375 2.75 C4.07558594 3.26046875 4.71367188 3.7709375 5.37109375 4.296875 C7.28149117 6.2943169 7.8283914 7.24416775 8 10 C7.07421875 12.5859375 7.07421875 12.5859375 5.6875 15.375 C3.84289717 19.20255087 2.21417481 22.91595746 1 27 C-4.01520023 22.80780699 -8.67953892 18.41938881 -13.25 13.75 C-14.46116003 12.51328807 -15.6746134 11.27881688 -16.890625 10.046875 C-17.41688477 9.50901367 -17.94314453 8.97115234 -18.48535156 8.41699219 C-20.15119893 6.78121757 -20.15119893 6.78121757 -23 5 C-22.67 4.34 -22.34 3.68 -22 3 C-21.3709375 3.433125 -20.741875 3.86625 -20.09375 4.3125 C-14.45076128 7.98384206 -10.76533408 10.06821064 -4 9 C-1.93597315 8.01951062 -1.93597315 8.01951062 -1 6 C-0.2730774 2.89160979 -0.2730774 2.89160979 0 0 Z " fill="#287EEA" transform="translate(122,180)"/>
<path d="M0 0 C5.21608697 4.36821848 10.12518617 8.94240875 14.9375 13.75 C15.62134766 14.42160156 16.30519531 15.09320313 17.00976562 15.78515625 C17.9775293 16.75001953 17.9775293 16.75001953 18.96484375 17.734375 C19.5487085 18.31413086 20.13257324 18.89388672 20.73413086 19.49121094 C22 21 22 21 22 23 C21.27554688 23.25394531 20.55109375 23.50789063 19.8046875 23.76953125 C13.54310944 25.99685137 13.54310944 25.99685137 7.5625 28.875 C5 30 5 30 2.9375 29.5625 C0.18270157 27.34088836 -1.81842108 24.78757306 -4 22 C-2.88625 21.566875 -1.7725 21.13375 -0.625 20.6875 C3.17512334 19.30088881 3.17512334 19.30088881 5 16 C4.77838618 10.23804076 2.90945902 6.78652936 0 2 C0 1.34 0 0.68 0 0 Z " fill="#267DEC" transform="translate(143,142)"/>
<path d="M0 0 C5.84500718 1.78928791 8.41542078 6.69112144 11.375 11.75 C11.74689453 12.34103516 12.11878906 12.93207031 12.50195312 13.54101562 C14.45525443 16.87654131 15.06489506 18.87230107 14.921875 22.765625 C14.0625 25.9375 14.0625 25.9375 12 27.875 C11.0409375 28.4009375 11.0409375 28.4009375 10.0625 28.9375 C10.248125 27.761875 10.43375 26.58625 10.625 25.375 C10.64171921 20.14188679 8.56575485 16.41013888 6 12 C5.63011963 11.33734131 5.26023926 10.67468262 4.87915039 9.99194336 C2.75663229 6.53867896 1.22904875 4.64086268 -2.74609375 3.49609375 C-3.79925781 3.31175781 -4.85242188 3.12742188 -5.9375 2.9375 C-4.02999883 0.28819281 -3.34264721 -0.07112015 0 0 Z " fill="#E5AE32" transform="translate(133.9375,134.0625)"/>
<path d="M0 0 C2.5 1.625 2.5 1.625 4 4 C4.25 7.25 4.25 7.25 4 10 C3.67 10 3.34 10 3 10 C2.34 8.02 1.68 6.04 1 4 C-7.36151775 4 -13.32067565 8.37366911 -20 13 C-22.35953094 15.35953094 -22.49141413 16.77895617 -23 20 C-23.66 19.67 -24.32 19.34 -25 19 C-25.38525307 15.07041869 -25.55567346 12.79381923 -23.25 9.5 C-16.70201534 3.92208714 -8.83794223 -1.73602437 0 0 Z " fill="#E7AF31" transform="translate(118,248)"/>
<path d="M0 0 C2.5625 2.0625 2.5625 2.0625 5 5 C4.85542948 10.91293434 2.72003359 14.93618599 -0.3125 19.8125 C-0.70373047 20.47958984 -1.09496094 21.14667969 -1.49804688 21.83398438 C-5.22373112 27.95695799 -5.22373112 27.95695799 -9 29 C-12.6875 28.75 -12.6875 28.75 -16 28 C-16.33 27.34 -16.66 26.68 -17 26 C-15.453125 26.0309375 -15.453125 26.0309375 -13.875 26.0625 C-11.18816062 25.68254292 -10.20928196 25.22553209 -8.33984375 23.2109375 C-6.76285005 20.8635965 -5.3608259 18.47850711 -4 16 C-3.37544922 14.96359375 -3.37544922 14.96359375 -2.73828125 13.90625 C-0.00847072 9.07879559 0.39410708 5.51749907 0 0 Z " fill="#E1AD35" transform="translate(225,135)"/>
<path d="M0 0 C1.40572266 -0.01643555 1.40572266 -0.01643555 2.83984375 -0.03320312 C7.20258704 0.01320904 9.82891086 0.16385801 13.63671875 2.42578125 C15.5 4.5625 15.5 4.5625 15.8125 7.3125 C15.709375 8.055 15.60625 8.7975 15.5 9.5625 C14.88253906 8.90894531 14.26507813 8.25539062 13.62890625 7.58203125 C9.2111256 4.73060479 5.57582813 5.08329144 0.4375 5.25 C-0.46033203 5.25966797 -1.35816406 5.26933594 -2.28320312 5.27929688 C-6.19229129 5.34614374 -9.72187147 5.49264944 -13.5 6.5625 C-13.83 8.2125 -14.16 9.8625 -14.5 11.5625 C-14.83 11.5625 -15.16 11.5625 -15.5 11.5625 C-15.9398123 7.78011422 -15.84536792 6.05774457 -13.63671875 2.890625 C-9.14367089 -0.4441901 -5.45106872 -0.13871358 0 0 Z " fill="#E8AF2F" transform="translate(96.5,210.4375)"/>
<path d="M0 0 C2.875 0.3125 2.875 0.3125 6 1 C9.03972924 5.55959387 8.40796461 10.07190492 8.4375 15.4375 C8.47037109 16.48744141 8.50324219 17.53738281 8.53710938 18.61914062 C8.59109569 26.31955263 8.59109569 26.31955263 5.6484375 29.70703125 C2.81684999 31.08941394 1.10738265 31.35512945 -2 31 C-1.1853125 30.40316406 -0.370625 29.80632812 0.46875 29.19140625 C3.09396694 26.55970043 3.41654947 24.50828564 3.59375 20.83984375 C3.58845696 18.87215479 3.55637986 16.9043882 3.5 14.9375 C3.50386719 13.44766602 3.50386719 13.44766602 3.5078125 11.92773438 C3.4426342 5.39906174 3.4426342 5.39906174 0 0 Z " fill="#E8AE2E" transform="translate(177,123)"/>
<path d="M0 0 C2 2 2 2 2.4375 4.8125 C1.84894073 9.10057471 0.21424615 10.15297283 -3 13 C-5.23680489 14.60366456 -7.55248664 16.0040666 -9.9375 17.375 C-10.53240234 17.74238281 -11.12730469 18.10976562 -11.74023438 18.48828125 C-14.75545701 20.23480365 -16.74682183 21.00668658 -20.25390625 20.9140625 C-23.0074472 19.99752113 -24.23306249 19.25775348 -26 17 C-24.205625 16.7525 -24.205625 16.7525 -22.375 16.5 C-17.76415347 15.46476216 -13.75017601 13.56512661 -9.625 11.3125 C-9.01833496 10.99796875 -8.41166992 10.6834375 -7.78662109 10.359375 C-2.9868685 7.62355626 -1.69029312 5.02831801 0 0 Z " fill="#E5AE33" transform="translate(260,170)"/>
<path d="M0 0 C4.37793985 0.41141008 7.34499624 1.85416072 11.01171875 4.109375 C11.61435547 4.45742187 12.21699219 4.80546875 12.83789062 5.1640625 C16.27342352 7.20049254 19.3053178 9.24014631 21.82421875 12.359375 C22.07421875 16.109375 22.07421875 16.109375 21.82421875 19.359375 C21.16421875 19.689375 20.50421875 20.019375 19.82421875 20.359375 C19.49164063 19.30621094 19.1590625 18.25304687 18.81640625 17.16796875 C16.7792512 12.42853826 13.38530905 10.71984971 8.94921875 8.421875 C8.24152344 8.02419922 7.53382812 7.62652344 6.8046875 7.21679688 C3.10552091 5.21566486 0.1349911 3.61001135 -4.17578125 4.359375 C-5.16578125 5.019375 -6.15578125 5.679375 -7.17578125 6.359375 C-4.44268455 0.50273921 -4.44268455 0.50273921 0 0 Z " fill="#E7AE30" transform="translate(100.17578125,166.640625)"/>
<path d="M0 0 C2.04119788 1.61594832 4.04072937 3.2856382 6 5 C6 5.66 6 6.32 6 7 C0.555 8.485 0.555 8.485 -5 10 C-4.67 9.34 -4.34 8.68 -4 8 C-3.34 8 -2.68 8 -2 8 C-1.34 5.36 -0.68 2.72 0 0 Z " fill="#4697EC" transform="translate(262,173)"/>
</svg>
