<?xml version="1.0" encoding="UTF-8"?>
<svg version="1.1" xmlns="http://www.w3.org/2000/svg" width="96" height="96">
<path d="M0 0 C0.70229736 0.00161133 1.40459473 0.00322266 2.12817383 0.00488281 C10.21201598 0.19428258 17.43066558 2.55566558 23.25 8.375 C30.78726243 17.03318863 33.10610442 25.00198801 32.6484375 36.34765625 C31.51390421 51.31856295 19.90739687 62.90477444 9.9375 73.125 C9.35105713 73.7339209 8.76461426 74.3428418 8.16040039 74.97021484 C7.59571045 75.5317627 7.03102051 76.09331055 6.44921875 76.671875 C5.95252686 77.17041992 5.45583496 77.66896484 4.9440918 78.18261719 C2.66880517 79.78407271 1.02778555 80.22940425 -1.75 80.375 C-3.73535156 79.13427734 -3.73535156 79.13427734 -5.640625 77.2109375 C-6.34614502 76.50718994 -7.05166504 75.80344238 -7.77856445 75.07836914 C-8.51163818 74.31000732 -9.24471191 73.54164551 -10 72.75 C-10.75563232 71.97325928 -11.51126465 71.19651855 -12.28979492 70.39624023 C-18.24716201 64.15552479 -23.43233207 57.86030282 -27.75 50.375 C-28.21921875 49.56289063 -28.6884375 48.75078125 -29.171875 47.9140625 C-33.06498488 39.88785651 -33.08077396 29.911589 -31.01953125 21.3359375 C-27.74640416 12.49181451 -21.93602493 6.83766055 -13.75 2.375 C-9.16444543 0.49473076 -4.91342374 -0.01175882 0 0 Z M-18.40234375 17.203125 C-22.48531948 23.02580343 -24.33654969 29.42324573 -23.2890625 36.48046875 C-19.81611241 49.81468538 -10.50324447 59.17152087 -0.75 68.375 C9.04727199 64.11627591 17.43987492 52.62055949 21.70703125 43.13671875 C24.60944667 34.87599795 24.86753104 28.84642776 21.08203125 20.93359375 C17.69501598 15.17471905 13.70317072 11.34758494 7.25 9.375 C-2.95798778 7.82290829 -11.31627664 9.36322097 -18.40234375 17.203125 Z " fill="#FFFFFF" transform="translate(47.75,7.625)"/>
<path d="M0 0 C2.5 1.5 2.5 1.5 4 4 C4.791013 8.02098277 4.62153384 10.96411027 2.5 14.5 C-1.03588973 16.62153384 -3.97901723 16.791013 -8 16 C-10.5 14.5 -10.5 14.5 -12 12 C-12.791013 7.97901723 -12.62153384 5.03588973 -10.5 1.5 C-6.96411027 -0.62153384 -4.02098277 -0.791013 0 0 Z " fill="#FFFFFF" transform="translate(52,32)"/>
</svg>
