<?xml version="1.0" encoding="UTF-8"?>
<svg version="1.1" xmlns="http://www.w3.org/2000/svg" width="96" height="96">
<path d="M0 0 C4.21649652 2.23497357 7.26752411 5.39352578 10.609375 8.765625 C11.31731201 9.47783203 12.02524902 10.19003906 12.75463867 10.92382812 C18.87172449 17.23914311 23.67451373 23.80352353 27.859375 31.515625 C28.25640625 32.20398437 28.6534375 32.89234375 29.0625 33.6015625 C32.48270879 40.72181535 31.95025979 51.10173733 30.09765625 58.59765625 C26.48939143 68.11035442 20.18078743 73.66486834 11.359375 78.390625 C2.60658051 81.27939314 -8.77839637 80.73369948 -17.03125 76.7734375 C-25.37593007 71.79753568 -30.56512008 64.90997773 -33.140625 55.515625 C-34.47835072 40.64509258 -30.8947276 30.17804652 -21.70849609 18.38378906 C-5.27752991 -1.1941856 -5.27752991 -1.1941856 0 0 Z M-6.58447266 15.57836914 C-15.84390902 24.87021742 -23.65185162 33.94917758 -25.140625 47.515625 C-24.96185871 54.49868311 -21.73848759 60.38151062 -17.140625 65.515625 C-11.30323463 70.65780255 -5.11125517 71.30749416 2.484375 70.98828125 C8.55272064 70.13843192 12.54805161 68.05159105 16.66796875 63.53125 C21.08961332 57.55089619 23.3617217 51.32683287 22.58203125 43.859375 C19.66928617 30.60924053 9.83709728 20.17321787 -0.140625 11.515625 C-3.2183479 11.515625 -4.4872499 13.53852382 -6.58447266 15.57836914 Z " fill="#FFFFFF" transform="translate(49.140625,8.484375)"/>
<path d="M0 0 C1.2065625 0.0309375 1.2065625 0.0309375 2.4375 0.0625 C2.69402344 0.74957031 2.95054688 1.43664063 3.21484375 2.14453125 C5.40768566 7.56858537 5.40768566 7.56858537 9.6328125 11.359375 C11.89975707 12.0925782 14.09581485 12.63102671 16.4375 13.0625 C17.77230163 13.38990417 19.106143 13.72135864 20.4375 14.0625 C20.480221 15.72861905 20.47813832 17.39632885 20.4375 19.0625 C18.90626315 20.59373685 17.50537176 20.30557107 15.375 20.375 C10.30015885 20.31035234 6.58615683 18.95997461 2.4375 16.0625 C-1.23029768 12.29818133 -3.38946866 8.60029301 -3.75 3.3125 C-3.48151496 0.09067949 -3.26141787 0.07954678 0 0 Z " fill="#FFFFFF" transform="translate(31.5625,55.9375)"/>
</svg>
